<mxfile host="app.diagrams.net" modified="2023-03-21T12:43:18.325Z" agent="5.0 (Windows NT 10.0; Win64; x64) AppleWebKit/537.36 (KHTML, like Gecko) Chrome/111.0.0.0 Safari/537.36" etag="w_ivAzoMLDCBxkaaoJeN" version="21.0.6" type="github">
  <diagram id="R2lEEEUBdFMjLlhIrx00" name="Page-1">
    <mxGraphModel dx="703" dy="392" grid="1" gridSize="10" guides="1" tooltips="1" connect="1" arrows="1" fold="1" page="1" pageScale="1" pageWidth="850" pageHeight="1100" math="0" shadow="0" extFonts="Permanent Marker^https://fonts.googleapis.com/css?family=Permanent+Marker">
      <root>
        <mxCell id="0" />
        <mxCell id="1" parent="0" />
        <mxCell id="kBiA-3u9Y7F-tgpkCYo1-1" value="Person" style="swimlane;fontStyle=0;childLayout=stackLayout;horizontal=1;startSize=26;horizontalStack=0;resizeParent=1;resizeParentMax=0;resizeLast=0;collapsible=1;marginBottom=0;align=center;fontSize=14;" vertex="1" parent="1">
          <mxGeometry x="374" y="69" width="160" height="146" as="geometry" />
        </mxCell>
        <mxCell id="kBiA-3u9Y7F-tgpkCYo1-2" value="ID_Number" style="text;strokeColor=none;fillColor=none;spacingLeft=4;spacingRight=4;overflow=hidden;rotatable=0;points=[[0,0.5],[1,0.5]];portConstraint=eastwest;fontSize=12;whiteSpace=wrap;html=1;" vertex="1" parent="kBiA-3u9Y7F-tgpkCYo1-1">
          <mxGeometry y="26" width="160" height="30" as="geometry" />
        </mxCell>
        <mxCell id="kBiA-3u9Y7F-tgpkCYo1-3" value="Name" style="text;strokeColor=none;fillColor=none;spacingLeft=4;spacingRight=4;overflow=hidden;rotatable=0;points=[[0,0.5],[1,0.5]];portConstraint=eastwest;fontSize=12;whiteSpace=wrap;html=1;" vertex="1" parent="kBiA-3u9Y7F-tgpkCYo1-1">
          <mxGeometry y="56" width="160" height="30" as="geometry" />
        </mxCell>
        <mxCell id="kBiA-3u9Y7F-tgpkCYo1-4" value="DOB" style="text;strokeColor=none;fillColor=none;spacingLeft=4;spacingRight=4;overflow=hidden;rotatable=0;points=[[0,0.5],[1,0.5]];portConstraint=eastwest;fontSize=12;whiteSpace=wrap;html=1;" vertex="1" parent="kBiA-3u9Y7F-tgpkCYo1-1">
          <mxGeometry y="86" width="160" height="30" as="geometry" />
        </mxCell>
        <mxCell id="kBiA-3u9Y7F-tgpkCYo1-7" value="Contact" style="text;strokeColor=none;fillColor=none;spacingLeft=4;spacingRight=4;overflow=hidden;rotatable=0;points=[[0,0.5],[1,0.5]];portConstraint=eastwest;fontSize=12;whiteSpace=wrap;html=1;" vertex="1" parent="kBiA-3u9Y7F-tgpkCYo1-1">
          <mxGeometry y="116" width="160" height="30" as="geometry" />
        </mxCell>
        <mxCell id="kBiA-3u9Y7F-tgpkCYo1-8" value="" style="triangle;whiteSpace=wrap;html=1;rotation=-90;" vertex="1" parent="1">
          <mxGeometry x="443.5" y="218.5" width="20" height="15" as="geometry" />
        </mxCell>
        <mxCell id="kBiA-3u9Y7F-tgpkCYo1-11" value="" style="line;strokeWidth=2;direction=south;html=1;" vertex="1" parent="1">
          <mxGeometry x="449" y="237" width="10" height="43" as="geometry" />
        </mxCell>
        <mxCell id="kBiA-3u9Y7F-tgpkCYo1-13" value="" style="line;strokeWidth=2;html=1;" vertex="1" parent="1">
          <mxGeometry x="334" y="274" width="240" height="10" as="geometry" />
        </mxCell>
        <mxCell id="kBiA-3u9Y7F-tgpkCYo1-14" value="" style="line;strokeWidth=2;direction=south;html=1;" vertex="1" parent="1">
          <mxGeometry x="330" y="278" width="10" height="82" as="geometry" />
        </mxCell>
        <mxCell id="kBiA-3u9Y7F-tgpkCYo1-15" value="" style="line;strokeWidth=2;direction=south;html=1;" vertex="1" parent="1">
          <mxGeometry x="569" y="278" width="10" height="82" as="geometry" />
        </mxCell>
        <mxCell id="kBiA-3u9Y7F-tgpkCYo1-16" value="Employee" style="swimlane;fontStyle=0;childLayout=stackLayout;horizontal=1;startSize=30;horizontalStack=0;resizeParent=1;resizeParentMax=0;resizeLast=0;collapsible=1;marginBottom=0;whiteSpace=wrap;html=1;" vertex="1" parent="1">
          <mxGeometry x="265" y="360" width="140" height="60" as="geometry" />
        </mxCell>
        <mxCell id="kBiA-3u9Y7F-tgpkCYo1-17" value="&lt;u&gt;employeeId&lt;/u&gt;" style="text;strokeColor=none;fillColor=none;align=left;verticalAlign=middle;spacingLeft=4;spacingRight=4;overflow=hidden;points=[[0,0.5],[1,0.5]];portConstraint=eastwest;rotatable=0;whiteSpace=wrap;html=1;" vertex="1" parent="kBiA-3u9Y7F-tgpkCYo1-16">
          <mxGeometry y="30" width="140" height="30" as="geometry" />
        </mxCell>
        <mxCell id="kBiA-3u9Y7F-tgpkCYo1-21" value="Patient" style="swimlane;fontStyle=0;childLayout=stackLayout;horizontal=1;startSize=30;horizontalStack=0;resizeParent=1;resizeParentMax=0;resizeLast=0;collapsible=1;marginBottom=0;whiteSpace=wrap;html=1;" vertex="1" parent="1">
          <mxGeometry x="504" y="360" width="140" height="60" as="geometry" />
        </mxCell>
        <mxCell id="kBiA-3u9Y7F-tgpkCYo1-22" value="&lt;u&gt;patientId&lt;/u&gt;" style="text;strokeColor=none;fillColor=none;align=left;verticalAlign=middle;spacingLeft=4;spacingRight=4;overflow=hidden;points=[[0,0.5],[1,0.5]];portConstraint=eastwest;rotatable=0;whiteSpace=wrap;html=1;" vertex="1" parent="kBiA-3u9Y7F-tgpkCYo1-21">
          <mxGeometry y="30" width="140" height="30" as="geometry" />
        </mxCell>
        <mxCell id="kBiA-3u9Y7F-tgpkCYo1-23" value="" style="triangle;whiteSpace=wrap;html=1;rotation=-90;" vertex="1" parent="1">
          <mxGeometry x="324" y="423" width="20" height="15" as="geometry" />
        </mxCell>
        <mxCell id="kBiA-3u9Y7F-tgpkCYo1-24" value="" style="line;strokeWidth=2;direction=south;html=1;" vertex="1" parent="1">
          <mxGeometry x="330" y="441" width="10" height="82" as="geometry" />
        </mxCell>
        <mxCell id="kBiA-3u9Y7F-tgpkCYo1-25" value="" style="line;strokeWidth=2;html=1;" vertex="1" parent="1">
          <mxGeometry x="184" y="517" width="288" height="10" as="geometry" />
        </mxCell>
        <mxCell id="kBiA-3u9Y7F-tgpkCYo1-26" value="" style="line;strokeWidth=2;direction=south;html=1;" vertex="1" parent="1">
          <mxGeometry x="179" y="521" width="10" height="82" as="geometry" />
        </mxCell>
        <mxCell id="kBiA-3u9Y7F-tgpkCYo1-27" value="" style="line;strokeWidth=2;direction=south;html=1;" vertex="1" parent="1">
          <mxGeometry x="466.5" y="521" width="10" height="82" as="geometry" />
        </mxCell>
        <mxCell id="kBiA-3u9Y7F-tgpkCYo1-28" value="" style="line;strokeWidth=2;direction=south;html=1;" vertex="1" parent="1">
          <mxGeometry x="330" y="523" width="10" height="82" as="geometry" />
        </mxCell>
        <mxCell id="kBiA-3u9Y7F-tgpkCYo1-29" value="Nurse" style="swimlane;fontStyle=0;childLayout=stackLayout;horizontal=1;startSize=30;horizontalStack=0;resizeParent=1;resizeParentMax=0;resizeLast=0;collapsible=1;marginBottom=0;whiteSpace=wrap;html=1;" vertex="1" parent="1">
          <mxGeometry x="114" y="603" width="140" height="60" as="geometry" />
        </mxCell>
        <mxCell id="kBiA-3u9Y7F-tgpkCYo1-30" value="&lt;u&gt;certificateId&lt;/u&gt;" style="text;strokeColor=none;fillColor=none;align=left;verticalAlign=middle;spacingLeft=4;spacingRight=4;overflow=hidden;points=[[0,0.5],[1,0.5]];portConstraint=eastwest;rotatable=0;whiteSpace=wrap;html=1;" vertex="1" parent="kBiA-3u9Y7F-tgpkCYo1-29">
          <mxGeometry y="30" width="140" height="30" as="geometry" />
        </mxCell>
        <mxCell id="kBiA-3u9Y7F-tgpkCYo1-31" value="Technician" style="swimlane;fontStyle=0;childLayout=stackLayout;horizontal=1;startSize=30;horizontalStack=0;resizeParent=1;resizeParentMax=0;resizeLast=0;collapsible=1;marginBottom=0;whiteSpace=wrap;html=1;" vertex="1" parent="1">
          <mxGeometry x="265" y="605" width="140" height="60" as="geometry" />
        </mxCell>
        <mxCell id="kBiA-3u9Y7F-tgpkCYo1-32" value="&lt;u style=&quot;border-color: var(--border-color);&quot;&gt;technicianId&lt;/u&gt;" style="text;strokeColor=none;fillColor=none;align=left;verticalAlign=middle;spacingLeft=4;spacingRight=4;overflow=hidden;points=[[0,0.5],[1,0.5]];portConstraint=eastwest;rotatable=0;whiteSpace=wrap;html=1;" vertex="1" parent="kBiA-3u9Y7F-tgpkCYo1-31">
          <mxGeometry y="30" width="140" height="30" as="geometry" />
        </mxCell>
        <mxCell id="kBiA-3u9Y7F-tgpkCYo1-33" value="Physician" style="swimlane;fontStyle=0;childLayout=stackLayout;horizontal=1;startSize=30;horizontalStack=0;resizeParent=1;resizeParentMax=0;resizeLast=0;collapsible=1;marginBottom=0;whiteSpace=wrap;html=1;" vertex="1" parent="1">
          <mxGeometry x="424" y="603" width="140" height="60" as="geometry" />
        </mxCell>
        <mxCell id="kBiA-3u9Y7F-tgpkCYo1-34" value="&lt;u&gt;physicianId&lt;/u&gt;" style="text;strokeColor=none;fillColor=none;align=left;verticalAlign=middle;spacingLeft=4;spacingRight=4;overflow=hidden;points=[[0,0.5],[1,0.5]];portConstraint=eastwest;rotatable=0;whiteSpace=wrap;html=1;" vertex="1" parent="kBiA-3u9Y7F-tgpkCYo1-33">
          <mxGeometry y="30" width="140" height="30" as="geometry" />
        </mxCell>
        <mxCell id="kBiA-3u9Y7F-tgpkCYo1-37" value="Care-center" style="swimlane;fontStyle=0;childLayout=stackLayout;horizontal=1;startSize=30;horizontalStack=0;resizeParent=1;resizeParentMax=0;resizeLast=0;collapsible=1;marginBottom=0;whiteSpace=wrap;html=1;" vertex="1" parent="1">
          <mxGeometry x="114" y="720" width="140" height="90" as="geometry" />
        </mxCell>
        <mxCell id="kBiA-3u9Y7F-tgpkCYo1-38" value="&lt;u&gt;name&lt;/u&gt;" style="text;strokeColor=none;fillColor=none;align=left;verticalAlign=middle;spacingLeft=4;spacingRight=4;overflow=hidden;points=[[0,0.5],[1,0.5]];portConstraint=eastwest;rotatable=0;whiteSpace=wrap;html=1;" vertex="1" parent="kBiA-3u9Y7F-tgpkCYo1-37">
          <mxGeometry y="30" width="140" height="30" as="geometry" />
        </mxCell>
        <mxCell id="kBiA-3u9Y7F-tgpkCYo1-42" value="location" style="text;strokeColor=none;fillColor=none;align=left;verticalAlign=middle;spacingLeft=4;spacingRight=4;overflow=hidden;points=[[0,0.5],[1,0.5]];portConstraint=eastwest;rotatable=0;whiteSpace=wrap;html=1;" vertex="1" parent="kBiA-3u9Y7F-tgpkCYo1-37">
          <mxGeometry y="60" width="140" height="30" as="geometry" />
        </mxCell>
        <mxCell id="kBiA-3u9Y7F-tgpkCYo1-43" value="mandatory AND" style="text;html=1;align=center;verticalAlign=middle;resizable=0;points=[];autosize=1;strokeColor=none;fillColor=none;" vertex="1" parent="1">
          <mxGeometry x="447" y="235" width="110" height="30" as="geometry" />
        </mxCell>
        <mxCell id="kBiA-3u9Y7F-tgpkCYo1-44" value="optional OR" style="text;html=1;align=center;verticalAlign=middle;resizable=0;points=[];autosize=1;strokeColor=none;fillColor=none;" vertex="1" parent="1">
          <mxGeometry x="329" y="455" width="90" height="30" as="geometry" />
        </mxCell>
        <mxCell id="kBiA-3u9Y7F-tgpkCYo1-45" value="Laboratory" style="swimlane;fontStyle=0;childLayout=stackLayout;horizontal=1;startSize=30;horizontalStack=0;resizeParent=1;resizeParentMax=0;resizeLast=0;collapsible=1;marginBottom=0;whiteSpace=wrap;html=1;" vertex="1" parent="1">
          <mxGeometry x="379" y="710" width="140" height="120" as="geometry" />
        </mxCell>
        <mxCell id="kBiA-3u9Y7F-tgpkCYo1-46" value="&lt;u&gt;labCode&lt;/u&gt;" style="text;strokeColor=none;fillColor=none;align=left;verticalAlign=middle;spacingLeft=4;spacingRight=4;overflow=hidden;points=[[0,0.5],[1,0.5]];portConstraint=eastwest;rotatable=0;whiteSpace=wrap;html=1;" vertex="1" parent="kBiA-3u9Y7F-tgpkCYo1-45">
          <mxGeometry y="30" width="140" height="30" as="geometry" />
        </mxCell>
        <mxCell id="kBiA-3u9Y7F-tgpkCYo1-47" value="name" style="text;strokeColor=none;fillColor=none;align=left;verticalAlign=middle;spacingLeft=4;spacingRight=4;overflow=hidden;points=[[0,0.5],[1,0.5]];portConstraint=eastwest;rotatable=0;whiteSpace=wrap;html=1;" vertex="1" parent="kBiA-3u9Y7F-tgpkCYo1-45">
          <mxGeometry y="60" width="140" height="30" as="geometry" />
        </mxCell>
        <mxCell id="kBiA-3u9Y7F-tgpkCYo1-48" value="location" style="text;strokeColor=none;fillColor=none;align=left;verticalAlign=middle;spacingLeft=4;spacingRight=4;overflow=hidden;points=[[0,0.5],[1,0.5]];portConstraint=eastwest;rotatable=0;whiteSpace=wrap;html=1;" vertex="1" parent="kBiA-3u9Y7F-tgpkCYo1-45">
          <mxGeometry y="90" width="140" height="30" as="geometry" />
        </mxCell>
        <mxCell id="kBiA-3u9Y7F-tgpkCYo1-49" value="Bed" style="swimlane;fontStyle=0;childLayout=stackLayout;horizontal=1;startSize=30;horizontalStack=0;resizeParent=1;resizeParentMax=0;resizeLast=0;collapsible=1;marginBottom=0;whiteSpace=wrap;html=1;" vertex="1" parent="1">
          <mxGeometry x="659" y="710" width="140" height="120" as="geometry" />
        </mxCell>
        <mxCell id="kBiA-3u9Y7F-tgpkCYo1-50" value="&lt;u&gt;bedId&lt;/u&gt;" style="text;strokeColor=none;fillColor=none;align=left;verticalAlign=middle;spacingLeft=4;spacingRight=4;overflow=hidden;points=[[0,0.5],[1,0.5]];portConstraint=eastwest;rotatable=0;whiteSpace=wrap;html=1;" vertex="1" parent="kBiA-3u9Y7F-tgpkCYo1-49">
          <mxGeometry y="30" width="140" height="30" as="geometry" />
        </mxCell>
        <mxCell id="kBiA-3u9Y7F-tgpkCYo1-51" value="bedNumber" style="text;strokeColor=none;fillColor=none;align=left;verticalAlign=middle;spacingLeft=4;spacingRight=4;overflow=hidden;points=[[0,0.5],[1,0.5]];portConstraint=eastwest;rotatable=0;whiteSpace=wrap;html=1;" vertex="1" parent="kBiA-3u9Y7F-tgpkCYo1-49">
          <mxGeometry y="60" width="140" height="30" as="geometry" />
        </mxCell>
        <mxCell id="kBiA-3u9Y7F-tgpkCYo1-52" value="roomNumber" style="text;strokeColor=none;fillColor=none;align=left;verticalAlign=middle;spacingLeft=4;spacingRight=4;overflow=hidden;points=[[0,0.5],[1,0.5]];portConstraint=eastwest;rotatable=0;whiteSpace=wrap;html=1;" vertex="1" parent="kBiA-3u9Y7F-tgpkCYo1-49">
          <mxGeometry y="90" width="140" height="30" as="geometry" />
        </mxCell>
        <mxCell id="kBiA-3u9Y7F-tgpkCYo1-53" value="nurseInCharge" style="swimlane;fontStyle=0;childLayout=stackLayout;horizontal=1;startSize=30;horizontalStack=0;resizeParent=1;resizeParentMax=0;resizeLast=0;collapsible=1;marginBottom=0;whiteSpace=wrap;html=1;" vertex="1" parent="1">
          <mxGeometry x="30" y="830" width="140" height="60" as="geometry" />
        </mxCell>
        <mxCell id="kBiA-3u9Y7F-tgpkCYo1-59" value="date" style="swimlane;fontStyle=0;childLayout=stackLayout;horizontal=1;startSize=30;horizontalStack=0;resizeParent=1;resizeParentMax=0;resizeLast=0;collapsible=1;marginBottom=0;whiteSpace=wrap;html=1;swimlaneLine=0;" vertex="1" parent="1">
          <mxGeometry x="670" y="457" width="140" height="60" as="geometry" />
        </mxCell>
        <mxCell id="kBiA-3u9Y7F-tgpkCYo1-60" value="comment" style="text;strokeColor=none;fillColor=none;align=center;verticalAlign=middle;spacingLeft=4;spacingRight=4;overflow=hidden;points=[[0,0.5],[1,0.5]];portConstraint=eastwest;rotatable=0;whiteSpace=wrap;html=1;" vertex="1" parent="kBiA-3u9Y7F-tgpkCYo1-59">
          <mxGeometry y="30" width="140" height="30" as="geometry" />
        </mxCell>
        <mxCell id="kBiA-3u9Y7F-tgpkCYo1-64" value="" style="endArrow=none;html=1;rounded=0;exitX=0.357;exitY=0;exitDx=0;exitDy=0;exitPerimeter=0;dashed=1;" edge="1" parent="1">
          <mxGeometry relative="1" as="geometry">
            <mxPoint x="82.98000000000002" y="830" as="sourcePoint" />
            <mxPoint x="190" y="690" as="targetPoint" />
            <Array as="points">
              <mxPoint x="83" y="690" />
            </Array>
          </mxGeometry>
        </mxCell>
        <mxCell id="kBiA-3u9Y7F-tgpkCYo1-65" value="" style="edgeStyle=orthogonalEdgeStyle;orthogonalLoop=1;jettySize=auto;html=1;rounded=0;exitX=1;exitY=0.5;exitDx=0;exitDy=0;" edge="1" parent="1">
          <mxGeometry width="100" relative="1" as="geometry">
            <mxPoint x="564" y="636" as="sourcePoint" />
            <mxPoint x="590" y="421" as="targetPoint" />
            <Array as="points">
              <mxPoint x="564" y="633" />
              <mxPoint x="591" y="633" />
            </Array>
          </mxGeometry>
        </mxCell>
        <mxCell id="kBiA-3u9Y7F-tgpkCYo1-66" value="is responsible for" style="text;html=1;align=center;verticalAlign=middle;resizable=0;points=[];autosize=1;strokeColor=none;fillColor=none;" vertex="1" parent="1">
          <mxGeometry x="587" y="546" width="110" height="30" as="geometry" />
        </mxCell>
        <mxCell id="kBiA-3u9Y7F-tgpkCYo1-67" value="" style="line;strokeWidth=1;html=1;dashed=1;" vertex="1" parent="1">
          <mxGeometry x="590" y="485" width="80" height="10" as="geometry" />
        </mxCell>
        <mxCell id="kBiA-3u9Y7F-tgpkCYo1-68" value="&lt;b&gt;1 -- 1&lt;/b&gt;" style="text;html=1;align=center;verticalAlign=middle;resizable=0;points=[];autosize=1;strokeColor=none;fillColor=none;" vertex="1" parent="1">
          <mxGeometry x="555" y="630" width="50" height="30" as="geometry" />
        </mxCell>
        <mxCell id="kBiA-3u9Y7F-tgpkCYo1-69" value="&lt;b&gt;1 -- *&lt;/b&gt;" style="text;html=1;align=center;verticalAlign=middle;resizable=0;points=[];autosize=1;strokeColor=none;fillColor=none;" vertex="1" parent="1">
          <mxGeometry x="594" y="420" width="50" height="30" as="geometry" />
        </mxCell>
        <mxCell id="kBiA-3u9Y7F-tgpkCYo1-72" value="" style="edgeStyle=segmentEdgeStyle;endArrow=classic;html=1;curved=0;rounded=0;endSize=8;startSize=8;sourcePerimeterSpacing=0;targetPerimeterSpacing=0;exitX=1;exitY=0.25;exitDx=0;exitDy=0;entryX=1.006;entryY=-0.148;entryDx=0;entryDy=0;entryPerimeter=0;" edge="1" parent="1" source="kBiA-3u9Y7F-tgpkCYo1-21" target="kBiA-3u9Y7F-tgpkCYo1-51">
          <mxGeometry width="100" relative="1" as="geometry">
            <mxPoint x="650" y="380" as="sourcePoint" />
            <mxPoint x="840" y="770" as="targetPoint" />
            <Array as="points">
              <mxPoint x="644" y="380" />
              <mxPoint x="840" y="380" />
              <mxPoint x="840" y="766" />
            </Array>
          </mxGeometry>
        </mxCell>
        <mxCell id="kBiA-3u9Y7F-tgpkCYo1-73" value="is assigned" style="text;html=1;align=center;verticalAlign=middle;resizable=0;points=[];autosize=1;strokeColor=none;fillColor=none;" vertex="1" parent="1">
          <mxGeometry x="760" y="575" width="80" height="30" as="geometry" />
        </mxCell>
        <mxCell id="kBiA-3u9Y7F-tgpkCYo1-75" value="&lt;b&gt;0 -- 1&lt;/b&gt;" style="text;html=1;align=center;verticalAlign=middle;resizable=0;points=[];autosize=1;strokeColor=none;fillColor=none;" vertex="1" parent="1">
          <mxGeometry x="647" y="357" width="50" height="30" as="geometry" />
        </mxCell>
        <mxCell id="kBiA-3u9Y7F-tgpkCYo1-77" value="&lt;b&gt;0 -- 1&lt;/b&gt;" style="text;html=1;align=center;verticalAlign=middle;resizable=0;points=[];autosize=1;strokeColor=none;fillColor=none;" vertex="1" parent="1">
          <mxGeometry x="790" y="766" width="50" height="30" as="geometry" />
        </mxCell>
        <mxCell id="kBiA-3u9Y7F-tgpkCYo1-78" value="" style="edgeStyle=none;orthogonalLoop=1;jettySize=auto;html=1;rounded=0;" edge="1" parent="1">
          <mxGeometry width="100" relative="1" as="geometry">
            <mxPoint x="254" y="766" as="sourcePoint" />
            <mxPoint x="380" y="766" as="targetPoint" />
            <Array as="points" />
          </mxGeometry>
        </mxCell>
        <mxCell id="kBiA-3u9Y7F-tgpkCYo1-79" value="hosts" style="text;html=1;align=center;verticalAlign=middle;resizable=0;points=[];autosize=1;strokeColor=none;fillColor=none;" vertex="1" parent="1">
          <mxGeometry x="295" y="740" width="50" height="30" as="geometry" />
        </mxCell>
        <mxCell id="kBiA-3u9Y7F-tgpkCYo1-80" value="&lt;b&gt;1 -- 1&lt;/b&gt;" style="text;html=1;align=center;verticalAlign=middle;resizable=0;points=[];autosize=1;strokeColor=none;fillColor=none;" vertex="1" parent="1">
          <mxGeometry x="245" y="740" width="50" height="30" as="geometry" />
        </mxCell>
        <mxCell id="kBiA-3u9Y7F-tgpkCYo1-81" value="&lt;b&gt;1 -- *&lt;/b&gt;" style="text;html=1;align=center;verticalAlign=middle;resizable=0;points=[];autosize=1;strokeColor=none;fillColor=none;" vertex="1" parent="1">
          <mxGeometry x="334" y="740" width="50" height="30" as="geometry" />
        </mxCell>
        <mxCell id="kBiA-3u9Y7F-tgpkCYo1-83" value="" style="edgeStyle=segmentEdgeStyle;endArrow=classic;html=1;curved=0;rounded=0;endSize=8;startSize=8;sourcePerimeterSpacing=0;targetPerimeterSpacing=0;" edge="1" parent="1" source="kBiA-3u9Y7F-tgpkCYo1-42">
          <mxGeometry width="100" relative="1" as="geometry">
            <mxPoint x="200" y="820" as="sourcePoint" />
            <mxPoint x="717" y="830" as="targetPoint" />
            <Array as="points">
              <mxPoint x="200" y="890" />
              <mxPoint x="717" y="890" />
            </Array>
          </mxGeometry>
        </mxCell>
        <mxCell id="kBiA-3u9Y7F-tgpkCYo1-84" value="&lt;b&gt;1 -- 1&lt;/b&gt;" style="text;html=1;align=center;verticalAlign=middle;resizable=0;points=[];autosize=1;strokeColor=none;fillColor=none;" vertex="1" parent="1">
          <mxGeometry x="190" y="810" width="50" height="30" as="geometry" />
        </mxCell>
        <mxCell id="kBiA-3u9Y7F-tgpkCYo1-85" value="&lt;b&gt;0 -- *&lt;/b&gt;" style="text;html=1;align=center;verticalAlign=middle;resizable=0;points=[];autosize=1;strokeColor=none;fillColor=none;" vertex="1" parent="1">
          <mxGeometry x="659" y="845" width="50" height="30" as="geometry" />
        </mxCell>
        <mxCell id="kBiA-3u9Y7F-tgpkCYo1-86" value="has a" style="text;html=1;align=center;verticalAlign=middle;resizable=0;points=[];autosize=1;strokeColor=none;fillColor=none;" vertex="1" parent="1">
          <mxGeometry x="395" y="895" width="50" height="30" as="geometry" />
        </mxCell>
        <mxCell id="kBiA-3u9Y7F-tgpkCYo1-87" value="" style="edgeStyle=segmentEdgeStyle;endArrow=classic;html=1;curved=0;rounded=0;endSize=8;startSize=8;sourcePerimeterSpacing=0;targetPerimeterSpacing=0;" edge="1" parent="1">
          <mxGeometry width="100" relative="1" as="geometry">
            <mxPoint x="340" y="666" as="sourcePoint" />
            <mxPoint x="420" y="710" as="targetPoint" />
            <Array as="points">
              <mxPoint x="340" y="690" />
              <mxPoint x="420" y="690" />
              <mxPoint x="420" y="710" />
            </Array>
          </mxGeometry>
        </mxCell>
        <mxCell id="kBiA-3u9Y7F-tgpkCYo1-88" value="&lt;b&gt;1 -- *&lt;/b&gt;" style="text;html=1;align=center;verticalAlign=middle;resizable=0;points=[];autosize=1;strokeColor=none;fillColor=none;" vertex="1" parent="1">
          <mxGeometry x="329" y="660" width="50" height="30" as="geometry" />
        </mxCell>
        <mxCell id="kBiA-3u9Y7F-tgpkCYo1-89" value="&lt;b&gt;1 -- 1&lt;/b&gt;" style="text;html=1;align=center;verticalAlign=middle;resizable=0;points=[];autosize=1;strokeColor=none;fillColor=none;" vertex="1" parent="1">
          <mxGeometry x="416.5" y="690" width="50" height="30" as="geometry" />
        </mxCell>
        <mxCell id="kBiA-3u9Y7F-tgpkCYo1-90" value="is assigned to" style="text;html=1;align=center;verticalAlign=middle;resizable=0;points=[];autosize=1;strokeColor=none;fillColor=none;" vertex="1" parent="1">
          <mxGeometry x="344" y="668" width="100" height="30" as="geometry" />
        </mxCell>
        <mxCell id="kBiA-3u9Y7F-tgpkCYo1-91" value="" style="edgeStyle=none;orthogonalLoop=1;jettySize=auto;html=1;rounded=0;entryX=0.551;entryY=0.014;entryDx=0;entryDy=0;entryPerimeter=0;exitX=0.551;exitY=0.999;exitDx=0;exitDy=0;exitPerimeter=0;" edge="1" parent="1" source="kBiA-3u9Y7F-tgpkCYo1-30" target="kBiA-3u9Y7F-tgpkCYo1-37">
          <mxGeometry width="100" relative="1" as="geometry">
            <mxPoint x="191" y="670" as="sourcePoint" />
            <mxPoint x="240" y="690" as="targetPoint" />
            <Array as="points" />
          </mxGeometry>
        </mxCell>
        <mxCell id="kBiA-3u9Y7F-tgpkCYo1-92" value="works in" style="text;html=1;align=center;verticalAlign=middle;resizable=0;points=[];autosize=1;strokeColor=none;fillColor=none;" vertex="1" parent="1">
          <mxGeometry x="183" y="675" width="70" height="30" as="geometry" />
        </mxCell>
        <mxCell id="kBiA-3u9Y7F-tgpkCYo1-93" value="&lt;b&gt;1 -- *&lt;/b&gt;" style="text;html=1;align=center;verticalAlign=middle;resizable=0;points=[];autosize=1;strokeColor=none;fillColor=none;" vertex="1" parent="1">
          <mxGeometry x="183" y="660" width="50" height="30" as="geometry" />
        </mxCell>
        <mxCell id="kBiA-3u9Y7F-tgpkCYo1-94" value="&lt;b&gt;1 -- 1&lt;/b&gt;" style="text;html=1;align=center;verticalAlign=middle;resizable=0;points=[];autosize=1;strokeColor=none;fillColor=none;" vertex="1" parent="1">
          <mxGeometry x="184" y="698" width="50" height="30" as="geometry" />
        </mxCell>
      </root>
    </mxGraphModel>
  </diagram>
</mxfile>
